<?xml version="1.0" encoding="iso-8859-1"?>
<!-- Generator: Adobe Illustrator 19.0.0, SVG Export Plug-In . SVG Version: 6.00 Build 0)  -->
<svg version="1.1" id="Layer_1" xmlns="http://www.w3.org/2000/svg" xmlns:xlink="http://www.w3.org/1999/xlink" x="0px" y="0px"
	 viewBox="0 0 512 512" style="enable-background:new 0 0 512 512;" xml:space="preserve">
<polygon style="fill:#FFFFFF;" points="244.457,327.586 219.658,341.954 194.859,327.586 194.859,298.848 219.658,284.48 
	244.457,298.848 "/>
<path style="fill:#F1F2F2;" d="M436.062,178.2h-9.234v-31.274c0-62.053-50.128-112.356-111.962-112.356
	c-45.809,0-85.183,27.611-102.522,67.151c-13.502-12.218-31.378-19.66-50.992-19.66c-42.075,0-76.18,34.227-76.18,76.448v19.691
	h-9.235c-37.61,0-68.1,30.597-68.1,68.34c0,37.743,30.49,68.339,68.1,68.339h360.125c37.611,0,68.101-30.597,68.101-68.339
	C504.163,208.797,473.673,178.2,436.062,178.2z"/>
<g>
	<polygon style="fill:#FFFFFF;" points="362.271,376.559 342.032,388.286 321.792,376.559 321.792,353.107 342.032,341.379 
		362.271,353.107 	"/>
	<polygon style="fill:#FFFFFF;" points="217.525,436.855 202.134,445.77 186.745,436.855 186.745,419.022 202.134,410.105 
		217.525,419.022 	"/>
	<polygon style="fill:#FFFFFF;" points="314.097,468.513 298.707,477.43 283.318,468.513 283.318,450.68 298.707,441.764 
		314.097,450.68 	"/>
	<polygon style="fill:#FFFFFF;" points="126.724,377.754 111.335,386.669 95.945,377.754 95.945,359.918 111.335,351.003 
		126.724,359.918 	"/>
</g>
<g style="opacity:0.2;">
	<path style="fill:#414042;" d="M39.706,268.395c0-37.744,30.49-68.34,68.1-68.34h9.235v-19.691
		c0-42.221,34.107-81.098,76.18-81.098c19.614,0-12.256-17.204-31.869-17.204c-42.075,0-76.18,34.227-76.18,76.448V178.2h-9.235
		c-37.61,0-68.1,30.597-68.1,68.34c0,30.425,19.82,56.195,47.204,65.048C45.459,299.816,39.706,284.781,39.706,268.395z"/>
</g>
<g>
	<path style="fill:#636052;" d="M436.062,170.363h-1.397v-23.437c0-66.275-53.742-120.193-119.799-120.193
		c-44.127,0-84.42,24.334-105.264,62.775c-14.067-9.914-30.865-15.285-48.25-15.285c-46.328,0-84.017,37.811-84.017,84.285v11.854
		h-1.398C34.066,170.363,0,204.537,0,246.541s34.066,76.176,75.937,76.176h111.086v4.868c0,2.795,1.489,5.379,3.908,6.78
		l24.799,14.368c1.215,0.704,2.571,1.056,3.929,1.056c1.357,0,2.714-0.352,3.929-1.056l24.799-14.368
		c2.419-1.401,3.908-3.985,3.908-6.78v-4.868h183.768c41.872,0,75.938-34.172,75.938-76.176S477.934,170.363,436.062,170.363z
		 M236.62,323.07l-16.962,9.827l-16.962-9.827v-0.352h33.925v0.352H236.62z M436.062,307.044H75.937
		c-33.23,0-60.263-27.142-60.263-60.504c0-33.363,27.034-60.504,60.263-60.504h9.235c4.329,0,7.837-3.509,7.837-7.837v-19.691
		c0-37.832,30.659-68.611,68.344-68.611c16.925,0,33.167,6.263,45.734,17.634c1.868,1.691,4.432,2.382,6.898,1.852
		c2.464-0.528,4.524-2.208,5.536-4.515c16.64-37.943,54.064-62.462,95.346-62.462c57.415,0,104.125,46.887,104.125,104.519v31.274
		c0,4.328,3.508,7.837,7.837,7.837h9.234c33.23,0,60.264,27.142,60.264,60.504C496.327,279.902,469.292,307.044,436.062,307.044z"/>
	<path style="fill:#636052;" d="M366.2,346.325l-20.24-11.728c-2.428-1.409-5.428-1.409-7.858,0l-20.24,11.728
		c-2.42,1.401-3.908,3.985-3.908,6.78v23.453c0,2.795,1.489,5.379,3.908,6.78l20.24,11.727c1.215,0.704,2.572,1.056,3.929,1.056
		s2.714-0.352,3.929-1.056l20.24-11.727c2.419-1.401,3.908-3.985,3.908-6.78v-23.453C370.108,350.31,368.619,347.727,366.2,346.325z
		 M354.435,372.042l-12.403,7.186l-12.403-7.186v-14.42l12.403-7.187l12.403,7.187V372.042z"/>
	<path style="fill:#636052;" d="M221.454,412.24l-15.39-8.916c-2.43-1.407-5.426-1.407-7.858,0l-15.39,8.916
		c-2.419,1.401-3.908,3.985-3.908,6.781v17.833c0,2.796,1.49,5.379,3.908,6.781l15.39,8.915c1.215,0.703,2.571,1.055,3.929,1.055
		s2.714-0.352,3.929-1.055l15.39-8.915c2.418-1.401,3.908-3.985,3.908-6.781v-17.833
		C225.361,416.226,223.873,413.642,221.454,412.24z M209.688,432.338l-7.554,4.376l-7.554-4.376v-8.8l7.554-4.376l7.554,4.376
		V432.338z"/>
	<path style="fill:#636052;" d="M318.025,443.899l-15.39-8.915c-2.43-1.407-5.426-1.407-7.858,0l-15.39,8.915
		c-2.418,1.401-3.908,3.985-3.908,6.781v17.833c0,2.795,1.489,5.379,3.908,6.781l15.39,8.916c1.215,0.703,2.572,1.055,3.929,1.055
		s2.714-0.352,3.929-1.055l15.39-8.916c2.419-1.401,3.908-3.986,3.908-6.781V450.68C321.934,447.884,320.444,445.3,318.025,443.899z
		 M306.261,463.996l-7.553,4.376l-7.554-4.376v-8.8l7.554-4.376l7.553,4.376V463.996z"/>
	<path style="fill:#636052;" d="M130.653,353.137l-15.39-8.915c-2.43-1.407-5.426-1.407-7.858,0l-15.39,8.915
		c-2.418,1.401-3.908,3.985-3.908,6.781v17.834c0,2.796,1.49,5.379,3.908,6.781l15.39,8.915c1.215,0.703,2.571,1.055,3.929,1.055
		c1.357,0,2.714-0.352,3.929-1.055l15.39-8.915c2.418-1.401,3.908-3.985,3.908-6.781v-17.834
		C134.561,357.122,133.072,354.539,130.653,353.137z M118.887,373.237l-7.554,4.376l-7.553-4.376v-8.801l7.553-4.376l7.554,4.376
		C118.887,364.435,118.887,373.237,118.887,373.237z"/>
</g>
<g>
</g>
<g>
</g>
<g>
</g>
<g>
</g>
<g>
</g>
<g>
</g>
<g>
</g>
<g>
</g>
<g>
</g>
<g>
</g>
<g>
</g>
<g>
</g>
<g>
</g>
<g>
</g>
<g>
</g>
</svg>
